<svg width="800" height="800" viewBox="0 0 128 128" id="Слой_1" version="1.1" xml:space="preserve" xmlns="http://www.w3.org/2000/svg">
    <style>
        .st1{fill:#424242}
    </style>
    <circle cx="64" cy="33" r="31" style="fill:#ffe0b2"/>
    <path class="st1" d="M64 66c-18.2 0-33-14.8-33-33S45.8 0 64 0s33 14.8 33 33-14.8 33-33 33zm0-62C48 4 35 17 35 33s13 29 29 29 29-13 29-29S80 4 64 4z"/>
    <path d="M126 126c0-34.2-27.8-62-62-62S2 91.8 2 126h124z" style="fill:#90caf9"/>
    <path class="st1" d="M126 128H2c-1.1 0-2-.9-2-2 0-25.9 15.5-48.3 37.7-58.3 8-3.6 17-5.7 26.3-5.7 6.6 0 13 1 19 2.9 26 8.1 45 32.4 45 61.1 0 1.1-.9 2-2 2zM4 124h120c-.6-19.4-10.5-36.4-25.3-46.9-6.1-4.4-13.1-7.6-20.6-9.4C73.5 66.6 68.8 66 64 66c-5.9 0-11.6.9-17 2.4-5 1.5-9.7 3.6-14 6.2C16.2 84.8 4.7 103.1 4 124z"/>
</svg>
